#!OML:ASF E:/inclinewalkrobotboard/Project1/Captureday1/Session1/subject1.ASF
:FULLY-SPECIFIED
:DEGREES
88
root 0 0 0 1.3138393374113995 -3.8534455515568116 1.8326082634452
lowerback 12.169246736924874 0.8576415713039551 -0.05987927912712254
upperback -4.386189136904006 1.094950101548234 -0.5683938819208928
thorax -11.618966652959793 0.49749629027579956 -0.82030391836305
lowerneck -6.010520224599268 1.594299046286406 4.463896533487505
upperneck 18.38883756136246 3.09958374037509 -8.197340943733508
head 6.743778764212339 1.1345315856456168 -3.1432431424153373
rclavicle 1.932108071110113E-15 -4.0314477978535505E-16
rhumerus 21.253177414129766 15.771622438242437 -47.637614974241316
rradius 73.6469585409824
rwrist 26.822832674382074
rhand -34.660745572542126 -57.663929129887244
rfingers 7.125020000000014
rthumb -7.801629168965437 -87.60808857042568
lclavicle -4.372665124465348E-16 -1.0195756493324609E-15
lhumerus 22.124606420400205 -12.529346957524115 43.86398705453482
lradius 71.11791553732095
lwrist -23.560705483590404
lhand -44.62165401399534 -71.1332780458774
lfingers 7.125020000000031
lthumb -17.40116310991733 -41.8352662002214
rfemur -25.2311172939774 -2.2180285108246576 17.20090740162504
rtibia 54.196057181460475
rfoot -29.69890238446665 -16.767222434432746
rtoes -18.43312086366891
lfemur -26.488415941253407 2.290834612371627 -17.627328652088597
ltibia 53.33003920116123
lfoot -32.59968623181102 -2.614064463518037
ltoes -21.01992846739462
89
root 0 0 0 1.3138096685381564 -3.8533924648314786 1.832593741675796
lowerback 12.169239743215968 0.8576363355155991 -0.0598737480098972
upperback -4.38619683560779 1.094943785735429 -0.568390117473908
thorax -11.618972344644106 0.49749284662273346 -0.8203023895481714
lowerneck -6.0105244643627325 1.594311552560306 4.463914277674404
upperneck 18.38886317702561 3.099600551133351 -8.19736270533566
head 6.7437866621905815 1.1345379186011102 -3.1432512221289297
rclavicle 1.9321220016374614E-15 -4.0305868873112263E-16
rhumerus 21.25315673931901 15.771584783236749 -47.637578765130385
rradius 73.64694853724666
rwrist 26.822875160959015
rhand -34.66075681457671 -57.6639689499447
rfingers 7.125020000000014
rthumb -7.801639870680395 -87.60813019478488
lclavicle -4.3730602652955596E-16 -1.0194962481022414E-15
lhumerus 22.124633369568706 -12.52936211019933 43.86397633932707
lradius 71.1179445043508
lwrist -23.560711117413696
lhand -44.621665371082344 -71.1333424161767
lfingers 7.125020000000031
lthumb -17.401173777805365 -41.83532878195233
rfemur -25.231076649898753 -2.2180377474849404 17.200942526567367
rtibia 54.19606073596981
rfoot -29.698872290163134 -16.76721724918023
rtoes -18.43306413990773
lfemur -26.488350189236787 2.2908747187834413 -17.627295190743595
ltibia 53.330224204408715
lfoot -32.599354474973254 -2.6143659428366024
ltoes -21.020225958557376
90
root 0 0 0 1.3136407711074778 -3.8557643471882574 1.832930467517834
lowerback 12.16908919808994 0.8579238438730916 -0.060198284757071785
upperback -4.385621816252631 1.09526512964128 -0.5682620503382371
thorax -11.618206223162815 0.4976862043187951 -0.8200319983934705
lowerneck -6.009073410174037 1.593619831452399 4.463361664150637
upperneck 18.3872639418325 3.098792557285808 -8.19702089459381
head 6.743085620524674 1.134183290821265 -3.1431506002211105
rclavicle 1.9194607587213043E-15 -3.9719652020892183E-16
rhumerus 21.252523438389517 15.77134555990031 -47.63865912876453
rradius 73.64592388797053
rwrist 26.82218430599378
rhand -34.65998506753333 -57.662201549436205
rfingers 7.125020000000014
rthumb -7.8006177715348635 -87.60619395000842
lclavicle -4.429355940436833E-16 -1.0185756878359724E-15
lhumerus 22.126271053890108 -12.527883181405311 43.8636849123683
lradius 71.11879719635121
lwrist -23.560901803666937
lhand -44.621814126742336 -71.13558618384661
lfingers 7.125020000000031
lthumb -17.4013163221953 -41.8385756062074
rfemur -25.23204827518235 -2.2171651635545615 17.201739031337883
rtibia 54.19393418473001
rfoot -29.696169535617482 -16.768494140926656
rtoes -18.430574968539574
lfemur -26.495082362182103 2.2917976212418933 -17.631347010377656
ltibia 53.329911390244064
lfoot -32.59990708930702 -2.612505213339894
ltoes -21.006925349127062
91
root 0 0 0 1.3139421577639507 -3.8539411751801556 1.8326500893340598
lowerback 12.169265021435054 0.8577041888718548 -0.0598481405764536
upperback -4.386091395652183 1.095038885195525 -0.5683878331738613
thorax -11.618859849876479 0.4975415740390283 -0.8203297113036598
lowerneck -6.010281406437636 1.594163087408966 4.463804916676717
upperneck 18.388507774625566 3.099415990136868 -8.197261828448923
head 6.743641436730677 1.134463691913946 -3.143222387592332
rclavicle 1.932306132559773E-15 -4.0346647023514215E-16
rhumerus 21.25328941165604 15.77182456874788 -47.63767593286008
rradius 73.64701148238316
rwrist 26.822786557611423
rhand -34.66051891101404 -57.663688618221535
rfingers 7.125020000000014
rthumb -7.801416353008159 -87.60788486617338
lclavicle -4.3602462470838607E-16 -1.0194895300133353E-15
lhumerus 22.124259732154314 -12.529094202282403 43.864144053369515
lradius 71.11752019249964
lwrist -23.56065373347569
lhand -44.62161837262741 -71.13285624297168
lfingers 7.125020000000031
lthumb -17.401130249368215 -41.8348518778228
rfemur -25.231274101497405 -2.218151734194696 17.20079403109511
rtibia 54.19636986325172
rfoot -29.69905247205592 -16.767252862229313
rtoes -18.4326863109573
lfemur -26.488852667480216 2.290887739973588 -17.62769545829338
ltibia 53.329985016467504
lfoot -32.600316126152094 -2.6129473136296504
ltoes -21.017223508140347
92
root 0 0 0 1.3138915333158785 -3.8536587753463385 1.8326514626280739
lowerback 12.169264283891513 0.8576628106789894 -0.059893875066709845
upperback -4.386159097123139 1.0949757566530127 -0.5683983610253961
thorax -11.618940163333342 0.49751000976862814 -0.820301941109751
lowerneck -6.010459390076753 1.5942603947917087 4.463853076364656
upperneck 18.388732075456957 3.099536524567031 -8.197305696631359
head 6.743737430534141 1.1345128040237618 -3.1432289760211605
rclavicle 1.932262360065998E-15 -4.0327331060321505E-16
rhumerus 21.253152534716868 15.771655079471747 -47.63770316406927
rradius 73.64692197226414
rwrist 26.822779413711718
rhand -34.66062664033758 -57.66374172875653
rfingers 7.125020000000014
rthumb -7.801514500698486 -87.60789908000484
lclavicle -4.3762517845916183E-16 -1.0202338903628864E-15
lhumerus 22.12455119285486 -12.529297339804996 43.8639876334734
lradius 71.11785881130986
lwrist -23.560729427765224
lhand -44.621629353212015 -71.13319071664397
lfingers 7.125020000000031
lthumb -17.40113503900606 -41.83515773814928
rfemur -25.23116043159954 -2.218101286649512 17.200892606352724
rtibia 54.19627646048486
rfoot -29.698852672514448 -16.767177539550588
rtoes -18.43311826201434
lfemur -26.48881739492115 2.2907899504242812 -17.627581807728856
ltibia 53.32989610388279
lfoot -32.60034949324478 -2.6134799669200817
ltoes -21.018517159814742
93
root 0 0 0 1.3138393067686351 -3.853445499761346 1.832608242051891
lowerback 12.169246743125482 0.8576415672189377 -0.05987925526363869
upperback -4.386189141931903 1.0949500999757455 -0.5683938781429511
thorax -11.618966664023942 0.49749628831224507 -0.820303927880977
lowerneck -6.010520220452294 1.5942990521775238 4.463896557602844
upperneck 18.388837567812725 3.0995837467526215 -8.197340973156319
head 6.74377876440115 1.1345315878035436 -3.14324315471677
rclavicle 1.9321080213992224E-15 -4.031445642534032E-16
rhumerus 21.253177497997534 15.771622508841245 -47.63761493962542
rradius 73.64695859246932
rwrist 26.82283270101079
rhand -34.660745554229024 -57.66392923459257
rfingers 7.125020000000014
rthumb -7.8016291508777424 -87.60808866847466
lclavicle -4.3726674653261716E-16 -1.0195753793751407E-15
lhumerus 22.124606513993847 -12.529347044278499 43.863987073834025
lradius 71.11791561533474
lwrist -23.560705452982596
lhand -44.6216540478175 -71.13327810905456
lfingers 7.125020000000031
lthumb -17.401163144496945 -41.83526627778562
rfemur -25.231117744889985 -2.218028443600513 17.200907572010543
rtibia 54.19605683780119
rfoot -29.698902875030246 -16.767222932270112
rtoes -18.433119671064077
lfemur -26.488415854657326 2.2908347996784197 -17.627328630803827
ltibia 53.33003965615275
lfoot -32.5996859634332 -2.6140645972576624
ltoes -21.01992842043862
94
root 0 0 0 1.3136480857776665 -3.8557736489277508 1.8329334941545046
lowerback 12.169090374640714 0.8579247614378175 -0.06019978871660181
upperback -4.385620447758691 1.0952661550677854 -0.5682629744574689
thorax -11.618205113646106 0.49768679256358694 -0.8200322423991415
lowerneck -6.009074683414057 1.5936175971325246 4.4633577572237675
upperneck 18.38726017974459 3.0987894754472913 -8.197015516283422
head 6.74308485097692 1.1341821662257185 -3.1431485985666825
rclavicle 1.9194656719841516E-15 -3.9720921718756946E-16
rhumerus 21.25252933942005 15.7713551269658 -47.63866960174019
rradius 73.64592764417309
rwrist 26.822173867016836
rhand -34.65998513136541 -57.66219393387313
rfingers 7.125020000000014
rthumb -7.800617844349169 -87.60618673748438
lclavicle -4.4291911376788226E-16 -1.0185936134985843E-15
lhumerus 22.126266064937738 -12.527881280582108 43.863685915262145
lradius 71.11879254465916
lwrist -23.5609007821541
lhand -44.62181157033943 -71.13557387312682
lfingers 7.125020000000031
lthumb -17.401313953551615 -41.83856315168251
rfemur -25.23205015967391 -2.217158445131579 17.201727819548427
rtibia 54.19392718070199
rfoot -29.696174501677614 -16.768494274678247
rtoes -18.430607004304278
lfemur -26.495092775408907 2.2917811465827533 -17.631346974222474
ltibia 53.32984944172831
lfoot -32.599991457167334 -2.6124348441497265
ltoes -21.006900813490184
95
root 0 0 0 1.3139444223514545 -3.8539438846743947 1.8326509813824496
lowerback 12.16926526206367 0.8577044580988527 -0.05984864381087729
upperback -4.386091003655484 1.0950391747509562 -0.568388105217032
thorax -11.618859469768886 0.4975417451475428 -0.8203297511473886
lowerneck -6.010281852389157 1.5941624386561555 4.463803696488185
upperneck 18.38850676746698 3.0994151028526726 -8.197260122010215
head 6.743641257222542 1.1344633703066256 -3.143221749834943
rclavicle 1.9323087812271578E-15 -4.034698049969086E-16
rhumerus 21.2532908742226 15.771827167594717 -47.637679389857475
rradius 73.64701252806265
rwrist 26.822783175262018
rhand -34.660519314734024 -57.663686026608694
rfingers 7.125020000000014
rthumb -7.801416751501684 -87.60788251630521
lclavicle -4.360168481068581E-16 -1.0194948299093826E-15
lhumerus 22.124257928106836 -12.52909331156503 43.86414412964384
lradius 71.11751863903315
lwrist -23.560653596138657
lhand -44.62161755617518 -71.1328528264537
lfingers 7.125020000000031
lthumb -17.401129472589442 -41.83484834937266
rfemur -25.231271271347445 -2.2181496870810156 17.200789740140344
rtibia 54.19636861932372
rfoot -29.6990515464472 -16.767250422368033
rtoes -18.4327028691144
lfemur -26.488855374373735 2.290881148679546 -17.627694457112828
ltibia 53.32996306364529
lfoot -32.60034269348064 -2.6129263413536097
ltoes -21.01722227851038
